<svg xmlns="http://www.w3.org/2000/svg" xmlns:xlink="http://www.w3.org/1999/xlink" id="Layer_2" viewBox="0 0 897 302.55"><defs><style>.cls-1{fill:url(#linear-gradient-12);}.cls-1,.cls-2,.cls-3,.cls-4,.cls-5,.cls-6,.cls-7,.cls-8,.cls-9,.cls-10,.cls-11,.cls-12,.cls-13,.cls-14,.cls-15,.cls-16,.cls-17,.cls-18,.cls-19,.cls-20,.cls-21,.cls-22,.cls-23,.cls-24,.cls-25{stroke-width:0px;}.cls-2{fill:url(#linear-gradient-17);}.cls-3{fill:url(#linear-gradient-19);}.cls-4{fill:url(#linear-gradient);}.cls-5{fill:url(#linear-gradient-21);}.cls-6{fill:url(#linear-gradient-6);}.cls-7{fill:url(#linear-gradient-15);}.cls-8{fill:url(#linear-gradient-11);}.cls-9{fill:url(#linear-gradient-5);}.cls-10{fill:url(#linear-gradient-13);}.cls-11{fill:url(#linear-gradient-23);}.cls-12{fill:url(#linear-gradient-16);}.cls-13{fill:url(#linear-gradient-22);}.cls-14{fill:#00008d;}.cls-15{fill:url(#linear-gradient-20);}.cls-16{fill:url(#linear-gradient-14);}.cls-17{fill:url(#linear-gradient-2);}.cls-18{fill:url(#linear-gradient-7);}.cls-19{fill:url(#linear-gradient-3);}.cls-20{fill:url(#linear-gradient-9);}.cls-21{fill:url(#linear-gradient-8);}.cls-22{fill:url(#linear-gradient-24);}.cls-23{fill:url(#linear-gradient-18);}.cls-24{fill:url(#linear-gradient-10);}.cls-25{fill:url(#linear-gradient-4);}</style><linearGradient id="linear-gradient" x1="372.98" y1="28.98" x2="101.29" y2="212.9" gradientUnits="userSpaceOnUse"><stop offset="0" stop-color="#37fcbe"></stop><stop offset=".12" stop-color="#31edc4"></stop><stop offset=".34" stop-color="#24c6d3"></stop><stop offset=".64" stop-color="#0d89ed"></stop><stop offset=".8" stop-color="#0165fc"></stop></linearGradient><linearGradient id="linear-gradient-2" x1="348.72" y1="-6.85" x2="77.03" y2="177.07" xlink:href="#linear-gradient"></linearGradient><linearGradient id="linear-gradient-3" x1="396.84" y1="64.24" x2="125.15" y2="248.15" xlink:href="#linear-gradient"></linearGradient><linearGradient id="linear-gradient-4" x1="324.47" y1="-42.68" x2="52.78" y2="141.24" xlink:href="#linear-gradient"></linearGradient><linearGradient id="linear-gradient-5" x1="386.66" y1="49.2" x2="114.97" y2="233.11" xlink:href="#linear-gradient"></linearGradient><linearGradient id="linear-gradient-6" x1="307.32" y1="-68.02" x2="35.63" y2="115.9" xlink:href="#linear-gradient"></linearGradient><linearGradient id="linear-gradient-7" x1="345.39" y1="-11.78" x2="73.69" y2="172.13" xlink:href="#linear-gradient"></linearGradient><linearGradient id="linear-gradient-8" x1="321.52" y1="-47.04" x2="49.83" y2="136.88" xlink:href="#linear-gradient"></linearGradient><linearGradient id="linear-gradient-9" x1="297.27" y1="-82.87" x2="25.57" y2="101.05" xlink:href="#linear-gradient"></linearGradient><linearGradient id="linear-gradient-10" x1="407.28" y1="79.66" x2="135.59" y2="263.57" xlink:href="#linear-gradient"></linearGradient><linearGradient id="linear-gradient-11" x1="383.03" y1="43.83" x2="111.34" y2="227.74" xlink:href="#linear-gradient"></linearGradient><linearGradient id="linear-gradient-12" x1="328.23" y1="-37.12" x2="56.54" y2="146.79" xlink:href="#linear-gradient"></linearGradient><linearGradient id="linear-gradient-13" x1="304.37" y1="-72.38" x2="32.68" y2="111.54" xlink:href="#linear-gradient"></linearGradient><linearGradient id="linear-gradient-14" x1="410.79" y1="84.84" x2="139.1" y2="268.75" xlink:href="#linear-gradient"></linearGradient><linearGradient id="linear-gradient-15" x1="404.07" y1="74.92" x2="132.38" y2="258.83" xlink:href="#linear-gradient"></linearGradient><linearGradient id="linear-gradient-16" x1="379.69" y1="38.9" x2="108" y2="222.81" xlink:href="#linear-gradient"></linearGradient><linearGradient id="linear-gradient-17" x1="331.57" y1="-32.19" x2="59.88" y2="151.73" xlink:href="#linear-gradient"></linearGradient><linearGradient id="linear-gradient-18" x1="355.82" y1="3.64" x2="84.13" y2="187.56" xlink:href="#linear-gradient"></linearGradient><linearGradient id="linear-gradient-19" x1="365.88" y1="18.49" x2="94.19" y2="202.4" xlink:href="#linear-gradient"></linearGradient><linearGradient id="linear-gradient-20" x1="390.13" y1="54.32" x2="118.44" y2="238.23" xlink:href="#linear-gradient"></linearGradient><linearGradient id="linear-gradient-21" x1="341.62" y1="-17.34" x2="69.93" y2="166.57" xlink:href="#linear-gradient"></linearGradient><linearGradient id="linear-gradient-22" x1="414" y1="89.58" x2="142.31" y2="273.49" xlink:href="#linear-gradient"></linearGradient><linearGradient id="linear-gradient-23" x1="338.41" y1="-22.08" x2="66.72" y2="161.83" xlink:href="#linear-gradient"></linearGradient><linearGradient id="linear-gradient-24" x1="290.16" y1="-93.36" x2="18.47" y2="90.56" xlink:href="#linear-gradient"></linearGradient></defs><g id="Layer_1-2"><path class="cls-14" d="M279.95,210.1h15.97v90.89h-15.97v-90.89Z"></path><path class="cls-14" d="M320.19,210.1h14.8l48.69,62.84v-62.84h15.71v90.89h-13.37l-50.12-64.66v64.66h-15.71v-90.89Z"></path><path class="cls-14" d="M418.73,255.81v-.26c0-25.58,19.74-47,47.65-47s47.39,21.16,47.39,46.74v.26c0,25.58-19.74,47-47.65,47s-47.39-21.16-47.39-46.74ZM497.02,255.81v-.26c0-17.66-12.85-32.33-30.9-32.33s-30.64,14.41-30.64,32.07v.26c0,17.66,12.86,32.33,30.9,32.33s30.64-14.41,30.64-32.07Z"></path><path class="cls-14" d="M519.73,210.1h17.66l27.4,69.85,27.27-69.85h17.27l-37.78,91.54h-14.02l-37.78-91.54Z"></path><path class="cls-14" d="M615.28,255.81v-.26c0-25.58,19.73-47,47.65-47s47.39,21.16,47.39,46.74v.26c0,25.58-19.73,47-47.65,47s-47.39-21.16-47.39-46.74ZM693.57,255.81v-.26c0-17.66-12.85-32.33-30.9-32.33s-30.64,14.41-30.64,32.07v.26c0,17.66,12.85,32.33,30.9,32.33s30.64-14.41,30.64-32.07Z"></path><path class="cls-14" d="M729.65,210.1h15.97v76.34h47.78v14.54h-63.75v-90.89Z"></path><path class="cls-14" d="M842.21,209.45h14.8l39.99,91.54h-16.88l-9.22-21.94h-42.98l-9.35,21.94h-16.36l39.99-91.54ZM865.06,264.89l-15.71-36.36-15.58,36.36h31.29Z"></path><circle class="cls-4" cx="232.55" cy="124.04" r="19.78"></circle><circle class="cls-17" cx="232.55" cy="71.79" r="14.21"></circle><circle class="cls-19" cx="232.55" cy="175.45" r="14.21"></circle><circle class="cls-25" cx="232.55" cy="19.54" r="16.23"></circle><circle class="cls-9" cx="123.38" cy="227.42" r="14.21"></circle><circle class="cls-6" cx="177.97" cy="19.54" r="6.68"></circle><circle class="cls-18" cx="68.8" cy="175.45" r="14.21"></circle><circle class="cls-21" cx="68.8" cy="124.04" r="18.46"></circle><circle class="cls-20" cx="68.8" cy="71.79" r="10.31"></circle><circle class="cls-24" cx="341.73" cy="124.04" r="14.21"></circle><circle class="cls-8" cx="341.73" cy="71.79" r="10.31"></circle><circle class="cls-1" cx="14.21" cy="175.45" r="14.21"></circle><circle class="cls-10" cx="14.21" cy="124.04" r="10.31"></circle><circle class="cls-16" cx="123.38" cy="279.39" r="10.31"></circle><circle class="cls-7" cx="177.97" cy="227.98" r="19.78"></circle><circle class="cls-12" cx="177.97" cy="175.45" r="14.21"></circle><circle class="cls-2" cx="177.97" cy="71.79" r="14.21"></circle><circle class="cls-23" cx="177.97" cy="124.04" r="10.31"></circle><circle class="cls-3" cx="287.14" cy="71.79" r="19.78"></circle><circle class="cls-15" cx="287.14" cy="124.04" r="14.21"></circle><circle class="cls-5" cx="287.14" cy="19.54" r="10.31"></circle><circle class="cls-13" cx="287.14" cy="175.45" r="10.31"></circle><path class="cls-11" d="M129.39,125.61v-2.95c0-14.33,3.38-28.62,10.87-40.83,2.1-3.42,3.18-7.52,2.85-11.9-.72-9.35-8.15-17.05-17.47-18.09-11.94-1.32-22.04,7.99-22.04,19.66,0,3.53.93,6.85,2.55,9.72,6.97,12.31,11.23,25.97,11.23,40.12v2.95c0,14.32-3.38,28.62-10.87,40.83-2.1,3.42-3.19,7.52-2.85,11.9.72,9.35,8.15,17.05,17.47,18.09,11.94,1.32,22.04-7.99,22.04-19.66,0-3.53-.93-6.85-2.55-9.72-6.97-12.31-11.23-25.97-11.23-40.12Z"></path><circle class="cls-22" cx="123.38" cy="19.54" r="19.54"></circle></g></svg>